#!OML:ASF E:\id_vita\Project 1\Capture day 1\Session 1\Male1.ASF
:FULLY-SPECIFIED
:DEGREES
749
root 23.925 14.2809 -5.143 -218.007 -85.3811 264.033
lowerback 26.7717 3.78342 -5.81829
upperback 6.11962 2.81287 0.389592
thorax -8.29072 1.23501 2.87058
lowerneck -22.4042 1.18652 0.253855
upperneck 13.2043 1.33916 0.97535
head 7.71329 0.750961 0.457258
rclavicle -6.44062e-014 1.51076e-014
rhumerus 57.811 18.0962 -64.0294
rradius 21.6885
rwrist 14.9695
rhand -26.6385 33.1389
rfingers 7.12502
rthumb -0.0709609 3.15919
lclavicle -6.44062e-014 1.51076e-014
lhumerus 58.7393 -15.3285 51.9284
lradius 19.2897
lwrist -27.5335
lhand -42.3448 78.9417
lfingers 7.12502
lthumb -15.2273 251.639
rfemur -51.4924 5.82876 26.7514
rtibia 56.042
rfoot -41.2154 -23.2825
rtoes -13.0531
lfemur -59.4349 7.24134 -14.257
ltibia 93.9383
lfoot -20.7944 -2.72526
ltoes 5.75952
750
root 23.848 14.2886 -5.13188 -220.15 -85.4568 266
lowerback 26.9256 3.75653 -5.72083
upperback 6.18927 2.78651 0.375237
thorax -8.28197 1.2159 2.80514
lowerneck -22.6394 1.14868 0.187485
upperneck 13.5336 1.28466 1.08469
head 7.86162 0.733634 0.501313
rclavicle 4.55217e-014 5.67033e-014
rhumerus 57.7296 18.2781 -63.5423
rradius 21.851
rwrist 15.0795
rhand -26.5591 33.2791
rfingers 7.12502
rthumb 0.00570024 3.29935
lclavicle 4.55217e-014 5.67033e-014
lhumerus 58.9407 -15.8884 50.9492
lradius 19.4542
lwrist -26.629
lhand -42.5349 78.6061
lfingers 7.12502
lthumb -15.4104 251.988
rfemur -50.6867 5.57302 26.8132
rtibia 55.4943
rfoot -41.5755 -22.8448
rtoes -13.3254
lfemur -60.973 7.32219 -14.7493
ltibia 94.6838
lfoot -22.3945 -2.55827
ltoes 3.50193
751
root 23.7742 14.3016 -5.12583 -221.331 -85.4779 267.06
lowerback 27.0916 3.79655 -5.8266
upperback 6.19195 2.80184 0.444292
thorax -8.37107 1.22602 2.93326
lowerneck -22.3953 1.17382 0.570466
upperneck 13.2129 1.3148 0.494792
head 7.72041 0.706555 0.242664
rclavicle -2.84262e-014 -4.47266e-014
rhumerus 57.5743 18.5021 -63.2895
rradius 21.8793
rwrist 15.6599
rhand -26.448 33.5508
rfingers 7.12502
rthumb 0.11306 3.57108
lclavicle -2.84262e-014 -4.47266e-014
lhumerus 58.9191 -16.0369 50.9549
lradius 19.4175
lwrist -26.6688
lhand -42.6859 78.8222
lfingers 7.12502
lthumb -15.5559 251.783
rfemur -50.0389 5.46407 26.8539
rtibia 54.945
rfoot -41.2701 -23.5238
rtoes -13.7281
lfemur -62.5579 7.54587 -15.2488
ltibia 95.3368
lfoot -23.5695 -2.892
ltoes 3.66182
752
root 23.714 14.2995 -5.1235 -221.867 -85.4562 267.618
lowerback 27.1061 3.86127 -6.02331
upperback 6.13966 2.83817 0.494009
thorax -8.45147 1.25168 3.08753
lowerneck -23.0868 1.00933 0.183717
upperneck 14.4518 1.0611 1.22056
head 8.24696 0.644198 0.527141
rclavicle -4.31363e-014 6.06293e-015
rhumerus 57.2407 18.3558 -63.7988
rradius 21.7082
rwrist 15.8684
rhand -26.541 33.3207
rfingers 7.12502
rthumb 0.0232521 3.34095
lclavicle -4.31363e-014 6.06293e-015
lhumerus 58.7829 -16.0304 51.4553
lradius 19.3355
lwrist -27.2366
lhand -42.7911 79.0404
lfingers 7.12502
lthumb -15.6572 251.573
rfemur -49.4781 5.42928 26.9027
rtibia 54.41
rfoot -41.2583 -23.5796
rtoes -13.5875
lfemur -64.4807 7.91708 -15.8158
ltibia 96.0127
lfoot -25.2549 -2.0816
ltoes -0.196621
753
root 23.6418 14.2961 -5.11584 -223.758 -85.4229 269.484
lowerback 27.0442 3.84371 -5.99449
upperback 6.17525 2.82908 0.50597
thorax -8.37898 1.24428 3.08988
lowerneck -22.602 1.11809 0.409986
upperneck 13.6613 1.21572 0.863353
head 7.90181 0.689945 0.382789
rclavicle 4.17448e-015 -5.41688e-015
rhumerus 56.9564 18.1345 -64.3047
rradius 21.6733
rwrist 15.932
rhand -26.6794 33.0423
rfingers 7.12502
rthumb -0.110457 3.06259
lclavicle 4.17448e-015 -5.41688e-015
lhumerus 58.8636 -16.2923 51.119
lradius 19.4237
lwrist -27.0204
lhand -42.6924 79.246
lfingers 7.12502
lthumb -15.5621 251.36
rfemur -48.8758 5.20423 27.0611
rtibia 53.8848
rfoot -41.3434 -23.5837
rtoes -13.9311
lfemur -66.1862 8.14286 -16.2878
ltibia 96.5866
lfoot -25.8817 -1.96752
ltoes 1.53924
754
root 23.564 14.2883 -5.11587 -222.871 -85.1521 268.708
lowerback 26.6225 3.96317 -6.10498
upperback 6.23616 2.98219 0.491585
thorax -8.11933 1.31153 3.09759
lowerneck -22.9841 0.928976 0.00358927
upperneck 14.3115 0.898794 1.77884
head 8.18024 0.616525 0.721631
rclavicle 4.1546e-014 3.58309e-014
rhumerus 56.9381 18.282 -63.8479
rradius 21.7928
rwrist 15.485
rhand -26.6539 32.8044
rfingers 7.12502
rthumb -0.0858498 2.82471
lclavicle 4.1546e-014 3.58309e-014
lhumerus 59.0318 -16.6031 50.5432
lradius 19.5775
lwrist -26.4971
lhand -42.6622 79.6387
lfingers 7.12502
lthumb -15.533 250.965
rfemur -48.3885 5.35808 27.2548
rtibia 53.3611
rfoot -41.4222 -23.5656
rtoes -14.1219
lfemur -67.99 8.77536 -16.7312
ltibia 97.1245
lfoot -27.3908 -1.45472
ltoes -0.217426
755
root 23.4911 14.2915 -5.10656 -227.094 -85.4081 272.739
lowerback 26.9004 3.80353 -5.99891
upperback 6.31384 2.77677 0.447328
thorax -8.14324 1.20853 3.05142
lowerneck -22.4536 1.04777 0.316037
upperneck 13.442 1.05954 1.34304
head 7.80126 0.659706 0.536095
rclavicle 1.61016e-014 2.71341e-014
rhumerus 56.9998 18.4525 -63.6044
rradius 21.7819
rwrist 15.1852
rhand -26.6308 32.5919
rfingers 7.12502
rthumb -0.0634713 2.6122
lclavicle 1.61016e-014 2.71341e-014
lhumerus 59.1149 -16.7081 50.1921
lradius 19.631
lwrist -26.2285
lhand -42.6715 79.7487
lfingers 7.12502
lthumb -15.5419 250.856
rfemur -47.611 4.9442 27.2424
rtibia 52.8304
rfoot -41.6382 -23.4768
rtoes -13.5015
lfemur -69.6638 8.55442 -17.3492
ltibia 97.4842
lfoot -28.2125 -0.945723
ltoes -0.90609
756
root 23.4118 14.295 -5.09658 -231.443 -85.5326 276.987
lowerback 27.0579 3.62856 -5.81192
upperback 6.28542 2.59098 0.401033
thorax -8.22589 1.12132 2.95142
lowerneck -22.525 1.10806 0.559129
upperneck 13.558 1.12858 1.00493
head 7.85492 0.670972 0.39384
rclavicle 3.53837e-014 5.63555e-014
rhumerus 56.6798 18.4939 -64.0822
rradius 21.6996
rwrist 15.5469
rhand -26.6301 32.4753
rfingers 7.12502
rthumb -0.0627895 2.49553
lclavicle 3.53837e-014 5.63555e-014
lhumerus 58.798 -16.7171 50.5388
lradius 19.6623
lwrist -26.7522
lhand -42.4461 79.2886
lfingers 7.12502
lthumb -15.3249 251.299
rfemur -46.8825 4.55586 27.3227
rtibia 52.2443
rfoot -41.7283 -23.553
rtoes -13.4866
lfemur -71.411 8.34632 -17.8803
ltibia 97.7248
lfoot -28.8757 -0.416939
ltoes -2.57976
757
root 23.338 14.2907 -5.09471 -233.426 -85.4286 279.139
lowerback 26.736 3.58 -5.76819
upperback 6.23942 2.57217 0.3918
thorax -8.11324 1.11492 2.92908
lowerneck -23.2048 0.96286 0.356711
upperneck 14.7011 0.864236 1.57609
head 8.35268 0.600554 0.595597
rclavicle 1.19271e-015 1.20265e-014
rhumerus 56.3526 18.3901 -64.5422
rradius 21.5919
rwrist 15.4669
rhand -26.7267 32.0703
rfingers 7.12502
rthumb -0.156117 2.09064
lclavicle 1.19271e-015 1.20265e-014
lhumerus 58.4323 -16.737 50.9409
lradius 19.8373
lwrist -27.2494
lhand -42.4322 78.9596
lfingers 7.12502
lthumb -15.3115 251.627
rfemur -46.4705 4.44634 27.5336
rtibia 51.6579
rfoot -41.6356 -23.6666
rtoes -13.8628
lfemur -73.453 8.51425 -18.3345
ltibia 97.9356
lfoot -30.0126 0.148924
ltoes -4.23444
758
root 23.252 14.2934 -5.0851 -234.789 -85.4092 280.216
lowerback 26.8861 3.5903 -5.82032
upperback 6.37858 2.55191 0.409311
thorax -8.03251 1.096 2.98456
lowerneck -22.6964 1.03898 0.597754
upperneck 13.7571 0.98718 1.16944
head 7.95032 0.624043 0.426633
rclavicle -3.1408e-014 -3.75703e-014
rhumerus 56.3432 18.4681 -64.4216
rradius 21.5697
rwrist 15.1611
rhand -26.7865 31.8051
rfingers 7.12502
rthumb -0.213878 1.82551
lclavicle -3.1408e-014 -3.75703e-014
lhumerus 58.5318 -16.9382 50.3667
lradius 20.0285
lwrist -26.6861
lhand -42.7148 79.3529
lfingers 7.12502
lthumb -15.5837 251.255
rfemur -45.4856 4.22927 27.6196
rtibia 51.006
rfoot -41.6215 -23.7239
rtoes -14.0577
lfemur -74.7734 8.59519 -18.8832
ltibia 97.9988
lfoot -30.5148 0.426211
ltoes -3.97576
759
root 23.1741 14.2962 -5.07312 -240.514 -85.5677 285.693
lowerback 27.2193 3.43982 -5.66964
upperback 6.44585 2.37602 0.443889
thorax -8.10179 1.00815 2.99034
lowerneck -23.3619 0.916855 0.361665
upperneck 14.7789 0.773374 1.69231
head 8.40587 0.571482 0.623512
rclavicle 2.72335e-014 2.15681e-014
rhumerus 56.2913 18.8254 -63.8768
rradius 21.7625
rwrist 15.3011
rhand -26.6851 32.0163
rfingers 7.12502
rthumb -0.115948 2.03658
lclavicle 2.72335e-014 2.15681e-014
lhumerus 58.7035 -17.1876 49.9046
lradius 20.0788
lwrist -26.266
lhand -42.9328 79.8632
lfingers 7.12502
lthumb -15.7936 250.761
rfemur -44.5888 3.71642 27.6738
rtibia 50.3721
rfoot -41.526 -23.9478
rtoes -14.4232
lfemur -76.2197 8.21196 -19.4121
ltibia 97.9689
lfoot -31.0762 1.17257
ltoes -5.33356
